Patient4_TMGait_0pt6_01_right_33_EMG.mot
version=1
nRows=39
nColumns=33
inDegrees=no
endheader
time	1LAddLong	2LGlutMax	3LGlutMed	4LIliopsoas	5LSemiMemb	6LBicFemLong	7LRecFem	8LVastMed	9LVastLat	10LGasMed	11LTibAnt	12lTibPost	13LPeroneusLong	14LSol	15LExtDigLong	16LFlexDigLong	17RAddLong	18RGlutMax	19RGlutMed	20RIliopsoas	21RSemiMemb	22RBicFemLong	23RRecFem	24RVastMed	25RVastLat	26RGasMed	27RTibAnt	28RTibPost	29RPeroneusLong	30RSol	31RExtDigLong	32RFlexDigLong
40.865	0.015259	0.05127	-0.24719	0.050812	0.029144	-0.006866	0.012054	0.014191	-0.066376	0.078735	0.03952	-0.000458	-0.177	-0.045166	0.006561	0.011749	-0.003357	-0.12909	-0.094299	-0.045166	-0.081635	-0.065308	0.10223	-0.13077	-0.014648	-0.024109	0.091705	-0.011444	0.58456	-0.035706	-0.001831	0.008392
40.866	0.021973	0.072327	-0.18616	0.030518	0.039368	0.024872	0.077057	-0.012054	-0.02182	-0.21088	-0.030518	0.017853	0.41611	0.059357	0.078735	0.006866	0.001068	-0.1062	-0.14847	0.14816	0.028229	-0.086823	0.13702	-0.18433	-0.007782	-0.0354	0.055542	-0.011292	0.56641	-0.036469	0.000305	0.005493
40.867	0.018616	0.070953	-0.17029	-0.001221	0.031281	0.10117	0.10574	-0.009766	-0.003052	-0.2565	0.010376	0.012054	0.70084	0.10819	0.12375	-0.000305	-0.011139	-0.054932	-0.035553	0.19684	-0.018463	-0.063934	0.056915	-0.22064	-0.001221	0.020142	0.041504	0.001221	0.36224	-0.019989	-0.001984	0.006866
40.868	0.017853	0.086365	-0.044861	-0.010376	0.037689	0.1329	0.097809	-0.011139	0.077362	-0.24445	-0.03891	0.016479	0.14114	0.15701	0.14923	0.008392	-0.009766	-0.050507	0.061035	0.12421	-0.040588	-0.09552	0.029297	-0.22766	0.006561	0.064087	0.074921	0	-0.091705	-0.028534	-0.00061	0.002747
40.869	0.018463	0.036621	-0.21637	-0.007324	0.03479	0.10437	0.12787	-0.009155	0.040588	-0.19836	-0.03418	0.023193	0.015564	0.083008	-0.031128	-0.006104	-0.001831	-0.070801	-0.03952	0.095062	-0.05188	-0.11902	0.041656	-0.17899	0.00351	0.029755	0.10925	-0.004883	-0.014191	-0.032654	-0.003204	-0.003052
40.87	0.015869	0.036316	-0.000458	-0.036469	0.035095	0.057983	0.09552	-0.010681	-0.026703	-0.096283	0.054626	0.010223	0.063019	0.024719	-0.031738	-0.006561	-0.00061	-0.072937	-0.093842	-0.035553	-0.059052	-0.11902	0.05188	-0.18143	0.019836	0.024872	0.12466	-0.011444	0.18448	-0.021362	-0.001678	0
40.871	0.014191	0.054169	0.068512	-0.002289	0.034637	0.054626	0.067444	-0.016937	-0.069885	-0.000305	0.057526	0.00824	-0.29739	-0.08606	-0.041504	-0.006104	0.000763	-0.01236	-0.13168	-0.11017	-0.050354	-0.07431	0.033722	-0.10635	0.04364	0.010071	0.10056	-0.005341	0.12268	0.018311	-0.002289	0.002441
40.872	0.011902	0.033722	-0.12604	0.014343	0.030365	0.079346	0.048981	-0.005646	-0.24857	-0.081635	0.034332	0.000916	-0.21301	-0.22415	-0.042267	-0.003357	0.016937	-0.019073	0.12207	-0.081329	-0.050201	-0.070038	-0.002747	-0.15396	0.028381	-0.006714	0.15976	-0.000458	-0.084076	-0.019379	-0.00061	-0.001373
40.873	0.010834	0.007324	0.11002	0.007172	0.02182	0.076599	0.082092	-0.007172	-0.14679	-0.13397	0.015259	0.003204	-0.27069	-0.21164	-0.007782	-0.007019	0.041656	-0.031433	0.39795	-0.020142	-0.025787	-0.065613	-0.070801	-0.11917	0.020905	-0.001526	0.10117	-0.006714	-0.11795	-0.053253	-0.003967	0.002747
40.874	0.010681	-0.019226	0.029602	-0.002899	0.014038	0.060425	0.15259	0.001068	-0.086365	-0.13901	0.065765	-0.001373	-0.39566	0.03418	0.081635	-0.009613	0.049286	-0.029297	0.73685	0.070038	-0.016937	-0.066833	-0.04837	-0.094757	0.011749	0.004272	0.13977	-0.001221	-0.053253	-0.063324	-0.002747	0.004272
40.875	0.007477	-0.038147	0.046692	0.003052	0.016937	0.039673	0.14862	-0.004883	-0.077209	-0.08606	0.057068	0.00473	-0.029755	0.18738	0.049896	-0.011139	0.05127	-0.10101	0.70633	0.022278	-0.088501	-0.027313	0.009918	-0.0177	0.007477	0.032806	0.32715	-0.008698	-0.038757	-0.031128	0.003357	0.000458
40.876	0.001526	-0.10101	0.08728	0.004883	0.018311	0.033112	0.12909	-0.006866	-0.096741	-0.009918	-0.008087	0.009918	0.23651	0.23941	0.028076	-0.015106	0.021973	-0.1471	0.54184	0.028076	-0.16525	0.082703	0.007324	0.063324	-0.001831	0.02243	0.54336	-0.010223	-0.006561	-0.028992	-0.002136	0.008392
40.877	0.009613	-0.15305	0.13229	-0.010071	0.015869	0.040894	0.15427	-0.001678	-0.10437	-0.003815	-0.075989	0.015106	0.80475	0.2327	-0.005951	-0.006104	0.057831	-0.22537	-0.064392	0.02533	-0.33646	0.046692	-0.000916	0.037384	0.014343	0.007935	0.22492	-0.010071	-0.089722	-0.038757	-0.002594	-0.00351
40.878	0.018768	-0.15732	0.10498	-0.019073	0.023956	-0.007935	0.11749	-0.010834	-0.046997	0.024261	-0.044098	0.00412	0.51727	0.17685	-0.041199	-0.01297	0.06134	-0.22659	-0.28107	0.041046	-0.63812	0.001984	0.037231	-0.077057	-0.007324	0.012817	-0.047913	-0.009613	-0.074158	-0.055237	-0.009003	-0.010529
40.879	0.019226	-0.16846	0.070496	-0.001221	0.034027	-0.0914	0.13855	-0.011444	-0.054626	0.11139	0.067444	0.001678	-0.27679	-0.071106	0.068207	-0.009155	0.036621	-0.2066	-0.24475	0.037537	-0.57541	0.038757	0.012207	-0.093079	0.00946	0.021057	-0.077362	-0.004883	0.014343	-0.18845	-0.003662	-0.010681
40.88	0.013123	-0.15396	0.042725	0.017548	0.023651	-0.087433	0.14923	0.001526	-0.1268	0.13214	0.03479	-0.000763	-0.33173	-0.23666	0.53833	-0.027618	-0.038605	-0.10849	-0.12589	-0.000916	0.036316	0.14572	-0.007477	-0.048981	0.006104	0.027618	-0.48096	-0.007019	0.43716	-0.19241	-0.004272	-0.006866
40.881	0.012054	-0.17212	-0.16647	0.025787	0.022888	-0.086365	0.13443	-0.001221	-0.18417	0.025482	-0.032654	0.000763	-0.76996	-0.14999	-0.033417	-0.002441	-0.065613	-0.1474	-0.093842	-0.020905	0.62256	0.16892	-0.035248	-0.001068	0.019684	0.022888	-0.34698	-0.009003	0.44022	-0.17914	-0.00351	-0.00473
40.882	0.005646	-0.14572	-0.16174	0.016785	0.020294	-0.0383	0.13809	-0.000763	-0.20981	-0.08728	-0.014343	0.009766	-0.23911	-0.18845	-0.39627	-0.001831	-0.062408	-0.019073	-0.047302	-0.018158	0.29633	0.11688	-0.047302	0.022888	0.018616	0.025177	-0.073853	-0.011139	-0.057526	-0.168	-0.006561	-0.001984
40.883	0.001068	-0.14328	0.073853	-0.01358	0.004425	0.034485	0.12878	0.013885	-0.26245	-0.1239	-0.022125	0.005646	0.003967	-0.18539	-0.28305	-0.008392	-0.046082	-0.008392	-0.047302	-0.021362	0.14145	0.023956	-0.023193	0.028381	0.015869	0.027008	0.13397	-0.002747	-0.50079	-0.1384	-0.003357	-0.007782
40.884	-0.001831	-0.16754	0.000153	-0.017853	-0.014343	0.057526	0.065002	0.021667	-0.24872	-0.1712	-0.002594	0.004425	0.1619	-0.089264	-0.17609	-0.018768	-0.016785	-0.062256	0.001831	-0.013885	0.091553	-0.002594	-0.040283	-0.034332	-0.003204	0.014648	-0.25314	-0.011444	-0.38162	-0.1149	-0.001831	-0.008087
40.885	0.010681	-0.17532	-0.093994	0.01358	0.032349	0.040283	0.040588	0.023346	-0.044556	-0.10727	-0.031281	-0.005798	0.29831	0.067291	-0.014954	0.002441	0.008087	-0.08667	-0.001373	-0.010681	0.057678	-0.088196	-0.031433	-0.04425	-0.000153	0.000763	-0.72876	-0.01297	-0.36957	-0.040588	-0.00351	-0.003662
40.886	0.018768	-0.14603	-0.1059	0.00824	0.079498	0.066376	0.082397	-0.010681	0.1561	-0.057373	-0.023041	-0.001831	0.103	0.14618	-0.1059	-0.006104	0.015717	-0.024109	0.070038	-0.001831	0.010834	-0.13107	-0.014801	-0.07019	0.007629	0.007477	-0.5838	-0.011597	-0.33203	0.007782	0.000153	-0.002136
40.887	0.015564	-0.16068	0.12039	0.032959	0.073242	0.061493	0.15091	-0.022736	0.18173	-0.058136	-0.01709	-0.007019	0.19592	0.19333	-0.066376	0.011749	0.014954	-0.004425	0.074463	-0.017548	-0.009613	-0.11307	-0.011139	-0.054779	0.00412	-0.005798	0.031738	-0.011139	0.053101	0.063782	-0.002289	-0.003052
40.888	0.010986	-0.18021	0.047607	0.023041	0.042267	0.019989	0.2179	-0.012512	0.16602	-0.057526	-0.020447	-0.012054	0.10757	0.30792	-0.0737	-0.022278	-0.018005	-0.041199	-0.098114	-0.039978	-0.022583	-0.1181	0.010529	-0.045624	0.009308	-0.007324	0.58044	-0.003662	0.054169	-0.051422	-0.001068	0.006561
40.889	0.014191	-0.21103	-0.082703	0.024109	0.000305	-0.006256	0.19562	-0.0177	0.082703	-0.039063	-0.033722	-0.009308	-0.43839	0.30594	-0.12024	-0.02121	-0.009766	-0.042267	-0.03067	-0.013428	-0.016479	0.093536	0.045319	-0.035095	0.013275	-0.006104	0.84976	-0.005188	-0.1828	-0.11566	-0.003357	0.003357
40.89	0.0177	-0.19272	-0.088196	0.00824	0.011444	-0.026398	0.18662	-0.00824	0.032043	0.032806	-0.045471	-0.003967	-0.066376	0.18356	-0.098267	0.10635	0.008087	-0.030823	0.068817	-0.068207	-0.016327	0.10574	0.11414	-0.046082	0.003815	-0.022736	0.3537	-0.009003	-0.17624	-0.004425	-0.000916	0.005951
40.891	0.006866	-0.1857	-0.17792	0.014191	0.024567	-0.022583	0.24857	0.006866	-0.023041	0.050354	-0.040588	-0.006256	-0.001984	-0.11673	-0.033569	-0.064545	-0.011444	-0.059662	0.028839	-0.11246	-0.00473	0.048218	0.15137	-0.07019	-0.005341	-0.026093	0.15243	-0.00473	0.003052	0.016632	-0.000305	0.008087
40.892	0.003204	-0.15015	-0.12878	-0.000458	0.011597	0.00824	0.25192	-0.025177	-0.058594	0.038147	-0.001831	-0.004425	0.009308	-0.34531	0.03418	-0.088348	-0.010071	-0.015259	0.13107	-0.103	0.011292	0.1091	0.29434	-0.10086	0.016327	-0.016785	0.15991	-0.001526	0.40665	-0.025482	-0.002441	0.004883
40.893	0.004425	-0.13489	-0.005341	0.011292	0.011292	-0.014191	0.25223	-0.001068	-0.070496	-0.027313	0.041199	-0.001221	-0.079803	-0.31525	0.060577	0.26459	0.003815	-0.008545	0.15152	-0.06424	0.016022	0.058594	0.41138	-0.15854	-0.010223	-0.012817	0.060425	-0.00061	0.093689	-0.036316	-0.002136	0.001373
40.894	0.010223	-0.15518	-0.045624	0.010071	0.023499	-0.004883	0.22125	-0.002441	-0.065155	-0.014343	0.069122	0.01297	-0.12604	-0.13901	0.056	0.11017	0.019073	-0.066071	0.18723	-0.001221	0.005493	0.022888	0.33844	-0.14847	-0.013428	-0.008698	-0.11551	-0.003815	0.019989	-0.002747	-0.002441	-0.001221
40.895	0.019226	-0.15732	0.027618	0.008545	0.053101	0.002594	0.19638	0.017395	-0.027771	0.03418	0.063477	0.011749	-0.14297	-0.039978	0.048218	-0.15076	0.022583	-0.098572	0.1741	0.16342	-0.058289	0.045776	0.34897	-0.16846	-0.037079	-0.001984	-0.5098	-0.003052	0.25925	-0.015717	-0.000916	0.005035
40.896	0.014038	-0.15671	-0.014648	-0.003052	0.060272	0.020142	0.18799	0.005035	0.014954	0.043335	0.053253	0.007477	-0.053558	-0.13504	0	-0.10193	0.028381	-0.093842	0.084839	0.30518	-0.11002	0.084991	0.2652	-0.22324	-0.060272	-0.013428	-0.46722	-0.008698	0.33493	-0.018005	-0.001526	-0.007019
40.897	0.01358	-0.092468	-0.03952	0.018463	0.047455	0.004272	0.23117	-0.010834	-0.017242	-0.018311	0.024872	0.003815	0.21698	-0.16235	-0.009308	-0.031128	0.027771	-0.056305	-0.33463	0.29251	-0.063477	0.024414	0.11688	-0.3038	-0.063477	-0.00412	-0.38971	-0.006866	0.76584	-0.018311	-0.004272	-0.005798
40.898	0.011139	-0.11932	-0.024567	0.017548	0.037079	0.000916	0.22858	-0.000458	-0.039673	0.037994	0.018005	-0.00946	0.037079	0.059357	-0.016785	-0.006104	0.012665	-0.02594	-0.29816	0.10529	-0.049744	-0.003815	-0.098419	-0.24185	-0.036011	0.00412	0.013428	-0.003662	0.26352	-0.050049	-0.003357	0.000916
40.899	0.002747	-0.12558	-0.037842	0.002594	0.019379	0.055084	0.19119	0.007019	-0.044861	0.11398	0.016327	-0.00946	-0.036316	0.2327	-0.023193	0.002441	0.006866	0.001678	0.29999	-0.045013	-0.044556	-0.028229	-0.29755	-0.25146	-0.04364	0.000916	0.1796	-0.00473	-0.37064	-0.07782	-0.001526	-0.007935
40.9	0.007477	-0.12314	-0.14206	0.009155	0.016632	0.063782	0.2095	0.002747	-0.049438	0.080261	0.02533	-0.008392	-0.43182	0.15152	-0.061188	0.003662	-0.012512	0.035553	0.37598	-0.094757	-0.047607	-0.031281	-0.59891	-0.22964	-0.087585	-0.001831	0.40604	-0.008087	-0.33386	-0.023193	-0.002289	-0.000305
40.901	-0.002594	-0.1088	-0.23239	-0.009308	0.023499	0.059052	0.25162	-0.003204	-0.01709	0.11261	0.020447	-0.007782	0.042419	0.036926	-0.072021	0.000763	-0.018463	-0.011292	0.34744	-0.085907	-0.036774	-0.027466	-0.72052	-0.18906	-0.052643	-0.000153	0.97214	-0.009918	-0.032501	-0.057831	-0.003357	0.00061
40.902	0.000153	-0.074615	-0.25589	-0.03006	0.029907	0.047607	0.24368	-0.006714	0.002136	0.17166	0.023651	-0.00885	0.50034	-0.040588	-0.097961	0.041351	-0.02182	-0.015717	0.28503	-0.087433	-0.030212	-0.038605	-0.6694	-0.15305	-0.019073	-0.005798	0.92071	-0.006256	-0.08255	-0.014801	-0.002441	-0.003052
40.903	-0.000458	-0.016327	-0.15076	-0.01236	0.036163	0.000305	0.13321	-0.011444	-0.012817	0.16693	-0.001068	-0.005341	-0.15488	-0.010681	-0.16266	0.037689	0.004272	-0.03418	0.6897	0.015869	-0.03479	-0.094299	-0.38406	-0.14862	0.001831	-0.003357	0.18524	-0.008545	0.003815	0.030823	-0.001526	0.001068
